# xmcd
#
# Track frame offsets: 
#        150
#        18720
#        40026
#        51282
#        65556
#        84183
#        103360
#        116958
#        138136
#        152877
#        173429
#        183365
#        197549
#        226357
#        247726
#        265966
#
# Disc length: 3745 seconds
#
# Revision: 0
# Processed by: cddbd v1.5.2PL0 Copyright (c) Steve Scherf et al.
# Submitted via: ExactAudioCopyFreeDBPlugin 1.0
#
DISCID=d30e9f10
DTITLE=Peewee Moore - American Outlaw
DYEAR=2015
DGENRE=Country
TTITLE0=Breaker 1-9
TTITLE1=Underground Queen
TTITLE2=Wanted Man
TTITLE3=Til My Heartache Comes Home
TTITLE4=Nickajack Dam
TTITLE5=If I Can't Win
TTITLE6=Georgia On A Fast Train
TTITLE7=Flathead 8
TTITLE8=Black Cadillac
TTITLE9=Thunder Road
TTITLE10=Elmer Gruene
TTITLE11=Losing Hand
TTITLE12=Hey Rosalita
TTITLE13=Where's A Man To Go
TTITLE14=Woman
TTITLE15=American Outlaw
EXTD=
EXTT0=
EXTT1=
EXTT2=
EXTT3=
EXTT4=
EXTT5=
EXTT6=
EXTT7=
EXTT8=
EXTT9=
EXTT10=
EXTT11=
EXTT12=
EXTT13=
EXTT14=
EXTT15=
PLAYORDER=
